<svg width="140" height="210" viewBox="150 0 70 192" fill="none" xmlns="http://www.w3.org/2000/svg">
<path d="M164.301 47.3747C164.233 40.8481 164.174 35.7287 164.174 35.7287C164.174 35.5298 164.184 34.8601 164.194 34.0401C164.203 33.2297 164.208 32.2738 164.203 31.4586C164.184 29.5273 163.209 27.6445 161.355 26.4459C160.089 25.6259 158.531 25.1406 156.852 25.1406C153.751 25.1406 151.087 26.7808 149.864 29.1391C149.403 30.0222 149.141 31.0073 149.141 32.0457C149.141 32.1185 149.151 32.1864 149.151 32.2544C149.209 32.5795 149.2 34.8941 149.2 35.7336V70.5453C149.2 71.244 149.141 73.4277 149.141 73.845C149.141 73.9178 149.151 73.9857 149.151 74.0536C149.209 74.3642 149.258 74.6796 149.306 74.995C149.355 75.325 149.408 75.6501 149.525 75.9655C149.593 76.1547 149.675 76.344 149.762 76.5284C150.937 79.008 153.683 80.7452 156.896 80.7452C160.816 80.7452 164.048 78.154 164.567 74.7912C164.592 74.6311 164.427 58.8314 164.305 47.3747H164.301Z" fill="#62C4DB"/>
<path d="M220.866 57.7835C220.803 51.7615 220.735 45.0797 220.682 40.2223C220.638 36.1317 220.609 33.3415 220.609 33.3415C220.609 32.9436 220.652 30.7066 220.638 29.0713C220.618 27.1401 219.643 25.2573 217.789 24.0587C216.523 23.2387 214.965 22.7534 213.286 22.7534C210.186 22.7534 207.522 24.3936 206.299 26.7519C205.838 27.635 205.576 28.6201 205.576 29.6585C205.576 29.7313 205.586 29.7992 205.586 29.8672C205.644 30.1923 205.634 32.5069 205.634 33.3464V68.1581C205.634 68.8568 205.576 71.0404 205.576 71.4577C205.576 71.5305 205.586 71.5985 205.586 71.6664C205.644 71.977 205.692 72.2924 205.741 72.6078C205.789 72.9378 205.843 73.2629 205.959 73.5783C206.027 73.7675 206.11 73.9568 206.197 74.1412C207.371 76.6208 210.118 78.358 213.33 78.358C217.251 78.358 220.483 75.7668 221.002 72.404C221.016 72.3021 220.953 65.6057 220.876 57.7835H220.866Z" fill="#62C4DB"/>
<path d="M192.556 43.8227C192.527 39.7078 192.498 35.4813 192.474 31.478C192.396 20.1281 192.328 10.5881 192.328 10.5881C192.328 10.1902 192.372 7.95322 192.357 6.31793C192.338 4.38664 191.363 2.50388 189.509 1.30532C188.243 0.485249 186.685 0 185.006 0C181.905 0 179.241 1.64014 178.018 3.99844C177.557 4.88159 177.295 5.86665 177.295 6.90508C177.295 6.97787 177.305 7.0458 177.305 7.11374C177.363 7.43885 177.354 9.75348 177.354 10.593V25.1553C177.32 25.4221 177.295 25.6939 177.295 25.9753C177.295 26.0481 177.305 26.116 177.305 26.184C177.339 26.3635 177.349 27.1399 177.354 27.9454V64.47C177.354 65.1688 177.295 67.3524 177.295 67.7697C177.295 67.8425 177.305 67.9104 177.305 67.9784C177.363 68.2889 177.412 68.6043 177.46 68.9198C177.509 69.2497 177.562 69.5748 177.679 69.8903C177.747 70.0795 177.829 70.2688 177.917 70.4531C179.091 72.9328 181.837 74.67 185.05 74.67C188.97 74.67 192.202 72.0787 192.721 68.716C192.731 68.6626 192.654 56.8128 192.561 43.8276L192.556 43.8227Z" fill="#62C4DB"/>
<path d="M242.828 60.3844C242.683 59.312 242.498 58.2542 242.265 57.206C241.795 56.1967 241.033 55.2844 239.975 54.6002C238.708 53.7802 237.151 53.2949 235.472 53.2949C232.371 53.2949 229.707 54.9351 228.484 57.2934C228.023 58.1765 227.761 59.1616 227.761 60.2C227.761 60.2728 227.771 60.3407 227.771 60.4087C227.781 60.4766 227.79 60.627 227.8 60.8308C228.062 62.3885 228.208 64.9797 228.208 66.5956V103.3C228.208 103.601 228.193 103.897 228.174 104.197C227.528 113.898 222.132 121.036 218.212 125.005C215.829 127.417 212.35 128.906 208.575 129.183C204.799 129.459 200.573 129.353 198.113 127.557C195.39 125.573 194.488 124.947 197.045 122.457C198.792 120.754 201.058 119.332 202.761 117.246C210.433 107.837 208.245 94.7885 196.943 88.6598C176.359 77.5039 153.334 99.7186 168.377 117.571C169.532 118.939 174.874 122.996 175.17 123.932C175.602 125.306 173.879 126.504 172.788 127.353C172.744 127.387 172.7 127.421 172.657 127.451C166.974 131.793 157.958 131.43 152.674 126.761C146.832 121.608 142.887 115.004 141.741 107.696C141.518 106.255 141.392 104.785 141.392 103.295V76.0919C141.261 75.2184 141.111 74.3498 140.921 73.4909C140.451 72.4816 139.689 71.5694 138.631 70.8852C137.364 70.0651 135.807 69.5798 134.128 69.5798C131.027 69.5798 128.363 71.22 127.14 73.5783C126.679 74.4614 126.864 80.2553 126.864 81.8712V109.128C126.864 109.128 127.31 119.318 132.318 124.685C134.39 126.902 137.821 131.488 141.926 135.02C149.049 141.144 161.816 144.061 171.589 141.299C173.773 140.683 175.83 139.834 177.664 138.733C177.994 138.534 178.562 138.111 179.241 137.582C180.624 137.694 182.022 137.752 183.439 137.752H185.588C187.394 137.752 189.17 137.65 190.916 137.471C191.106 137.602 191.295 137.733 191.489 137.854C200.845 143.595 212.772 142.217 222.21 138.145C221.778 138.854 233.385 131.483 237.233 125.165C240.135 120.405 243.173 111.107 243.173 103.305V65.596C243.173 63.8394 243.047 62.1022 242.814 60.3941L242.828 60.3844ZM193.537 108.57C193.1 109.603 186.452 115.994 185.816 116.047C180.076 112.65 172.38 105.556 179.343 99.6264C186.258 93.7403 196.977 100.403 193.537 108.57Z" fill="#62C4DB"/>
<path d="M122 190.218V159.65H128.12V171.983H140.794V159.65H146.914V190.218H140.794V177.45H128.12V190.218H122Z" fill="#62C4DB"/>
<path d="M160.397 190.746C158.75 190.746 157.29 190.373 155.985 189.597C154.681 188.851 153.655 187.764 152.879 186.335C152.133 184.937 151.729 183.26 151.729 181.365V167.479H157.632V179.936C157.632 181.893 158.036 183.322 158.812 184.223C159.589 185.123 160.707 185.589 162.167 185.589C163.627 185.589 164.528 185.123 165.46 184.223C166.392 183.322 166.889 181.893 166.889 179.936V167.479H172.792V190.187H167.076V186.77C166.516 188.075 165.709 189.069 164.652 189.721C163.596 190.373 162.167 190.715 160.397 190.715V190.746Z" fill="#62C4DB"/>
<path d="M188.324 190.777C185.994 190.777 183.944 190.249 182.173 189.162C180.402 188.074 179.035 186.645 178.041 184.875C177.078 183.073 176.581 181.085 176.581 178.91C176.581 176.736 177.078 174.716 178.103 172.915C179.129 171.082 180.527 169.653 182.266 168.566C184.037 167.478 186.056 166.95 188.324 166.95C190.592 166.95 192.611 167.478 194.319 168.566C196.059 169.653 197.395 171.082 198.389 172.915C199.352 174.748 199.849 176.736 199.849 178.91C199.849 181.085 199.849 179.563 199.818 179.904C199.818 180.246 199.756 180.619 199.694 180.992H182.701C183.012 182.327 183.664 183.415 184.658 184.253C185.621 185.092 186.864 185.527 188.355 185.527C189.846 185.527 190.747 185.248 191.71 184.657C192.642 184.067 193.388 183.353 193.916 182.483L198.513 185.931C197.612 187.36 196.246 188.509 194.444 189.41C192.642 190.311 190.623 190.777 188.386 190.777H188.324ZM188.231 172.014C186.833 172.014 185.652 172.449 184.658 173.287C183.664 174.126 183.012 175.245 182.701 176.611H193.916C193.605 175.369 192.922 174.282 191.927 173.381C190.933 172.48 189.691 172.014 188.231 172.014Z" fill="#62C4DB"/>
<path d="M203.577 190.218V158.345H209.479V190.218H203.577Z" fill="#62C4DB"/>
<path d="M214.077 190.218V158.345H219.979V190.218H214.077Z" fill="#62C4DB"/>
<path d="M234.984 190.777C232.902 190.777 231.038 190.249 229.33 189.193C227.621 188.137 226.285 186.708 225.26 184.906C224.266 183.104 223.738 181.116 223.738 178.941C223.738 176.767 224.018 175.773 224.608 174.344C225.198 172.915 226.006 171.641 227 170.554C228.025 169.467 229.206 168.597 230.572 167.975C231.939 167.354 233.399 167.043 234.953 167.043C236.506 167.043 238.463 167.416 239.581 168.162C240.7 168.907 241.538 169.901 242.16 171.113V167.541H248V190.249H242.284V186.521C241.663 187.795 240.793 188.851 239.674 189.628C238.556 190.404 236.972 190.808 234.922 190.808L234.984 190.777ZM235.947 185.465C237.251 185.465 238.401 185.154 239.333 184.564C240.265 183.974 241.01 183.166 241.538 182.172C242.066 181.178 242.315 180.091 242.315 178.941C242.315 177.792 242.066 176.643 241.538 175.68C241.01 174.685 240.265 173.878 239.333 173.288C238.401 172.666 237.251 172.356 235.947 172.356C234.642 172.356 233.586 172.666 232.654 173.256C231.722 173.847 230.976 174.654 230.448 175.648C229.92 176.643 229.672 177.73 229.672 178.91C229.672 180.091 229.92 181.116 230.448 182.11C230.976 183.104 231.722 183.912 232.654 184.533C233.586 185.154 234.704 185.465 235.947 185.465Z" fill="#62C4DB"/>
</svg>
